<svg width="23" height="22" viewBox="0 0 23 22" fill="none" xmlns="http://www.w3.org/2000/svg">
<path d="M13.7522 17.5756C11.894 17.5756 10.0359 17.5756 8.17662 17.5756C7.09975 17.5756 6.84152 17.3309 6.59428 16.1339C6.26353 14.5315 5.92399 12.9305 5.58115 11.3306C5.16578 9.38576 4.74273 7.44213 4.32407 5.49726C4.1021 4.46459 3.88123 3.43192 3.66586 2.39674C3.61641 2.15834 3.49224 2.0818 3.29005 2.08305C2.53075 2.08807 1.77035 2.09058 1.01105 2.08054C0.429758 2.07302 0.111093 1.77438 0.0154936 1.17837C-0.0823037 0.55852 0.293502 0.00893479 0.842924 0.00517051C2.0055 -0.00361281 3.16808 0.000151473 4.33066 0.00642527C4.7658 0.00893479 5.09656 0.338937 5.20644 0.84335C5.35698 1.54225 5.51522 2.23864 5.65587 2.94005C5.69433 3.13329 5.78224 3.20606 5.93827 3.20732C6.23166 3.21108 6.52396 3.21234 6.81735 3.21234C9.13372 3.21359 11.4501 3.18348 13.7654 3.22489C16.5202 3.27382 19.275 3.2412 22.0298 3.26253C22.7671 3.26755 23.1484 3.88489 22.9462 4.69045C22.644 5.89376 22.3726 7.10586 22.0781 8.31043C21.7792 9.53633 21.4705 10.7585 21.1606 11.9806C21.0573 12.3884 20.7782 12.6067 20.4397 12.6644C19.7541 12.7836 19.0585 12.8251 18.3739 12.953C17.752 13.0697 17.1245 13.1224 16.5015 13.2203C15.8059 13.3282 15.1081 13.4286 14.4093 13.5152C13.5654 13.6193 12.7236 13.7536 11.8797 13.8715C11.082 13.9832 10.2831 14.0886 9.48535 14.2015C9.08646 14.258 8.68868 14.3257 8.2909 14.3885C8.22387 14.3985 8.15355 14.4224 8.16234 14.5152C8.18761 14.8063 8.21728 15.1037 8.36013 15.3534C8.44034 15.4952 8.59418 15.4437 8.71945 15.445C10.5139 15.4488 12.3083 15.4224 14.1027 15.4588C15.9795 15.4977 17.8553 15.4764 19.731 15.4927C20.3255 15.4977 20.6936 15.8867 20.6958 16.509C20.698 17.1025 20.2727 17.5743 19.7123 17.5756C17.7256 17.5806 15.7389 17.5768 13.7533 17.5768V17.5743L13.7522 17.5756Z" fill="#223FC7"/>
<path d="M19.6663 20.0324C19.6663 21.1404 18.9212 21.971 17.9455 21.9886C16.9917 22.0049 16.2181 21.1165 16.2258 20.0161C16.2335 18.9496 17.0016 18.0763 17.9575 18.0788C18.8905 18.0813 19.6652 18.9634 19.6652 20.0337L19.6663 20.0324Z" fill="#223FC7"/>
<path d="M7.78781 20.0099C7.72628 18.8366 8.69876 18.0675 9.46905 18.0775C10.4031 18.0901 11.2063 18.9759 11.2019 20.0237C11.1975 21.1642 10.3218 22.0124 9.44158 21.9999C8.62513 21.9874 7.68562 21.1178 7.78781 20.0099Z" fill="#223FC7"/>
</svg>
