<svg width="128" height="106" viewBox="0 0 128 106" fill="none" xmlns="http://www.w3.org/2000/svg">
<g clip-path="url(#clip0_122_13)">
<path d="M127.969 25.0274C127.349 11.4118 116.234 0.431989 102.678 0.0134567C90.6191 -0.360551 80.3288 7.47135 76.912 18.371C73.6059 16.9462 70.2999 15.517 67.0116 14.0833C64.6096 12.9612 62.0747 11.7813 59.3758 12.6407C49.2805 15.4279 39.2871 18.1617 29.1828 20.9846C20.3284 23.4112 11.2612 25.8022 2.48645 28.3445C-0.0927785 29.1148 -0.030735 32.2404 0.0135817 34.4845C0.022445 38.7277 0.0135817 42.9175 0.0135817 47.1696C0.0135817 54.997 0.0135817 62.8779 0.0135817 70.7321C0.0135817 74.3297 0.0135817 77.9317 0.0135817 81.5204C0.022445 82.9541 0.0401718 84.6282 0.944233 85.7324C2.90303 87.785 5.82794 88.5954 8.25649 90.1226C17.625 95.2029 27.1177 100.154 36.5084 105.234C38.4982 106.459 40.6742 106.027 42.7127 105.212C47.3837 103.685 51.9794 102.215 56.575 100.719C69.7415 96.405 82.9612 92.2197 96.11 87.834C98.4277 87.0726 101.539 86.4938 101.738 83.5196C101.964 73.1898 101.858 62.8601 101.836 52.5304C101.472 52.5304 101.113 52.517 100.75 52.5036C101.118 52.517 101.481 52.5304 101.853 52.5304C116.704 52.5304 128.661 40.0902 127.974 25.0185L127.969 25.0274ZM86.0988 29.1638C86.2229 27.5654 87.3707 26.4656 88.9705 26.4656C89.7815 26.4433 90.4862 26.706 91.111 27.2403C92.3696 28.3134 93.6194 29.3953 94.6298 30.7311C95.2325 31.5281 95.782 31.5013 96.5221 30.7444C101.725 25.4104 106.954 20.103 112.21 14.8224C113.469 13.5579 114.971 13.3798 116.336 14.1768C117.586 14.907 117.768 16.0646 117.537 17.3558C117.391 18.1706 116.797 18.7049 116.247 19.2615C110.929 24.6134 105.607 29.9652 100.298 35.3305C99.7528 35.8826 99.2299 36.4569 98.7069 37.0313C96.5753 39.36 94.8071 39.4579 92.6267 37.294C90.8629 35.5442 89.1212 33.7721 87.3751 32.0045C86.5996 31.2208 86.0102 30.3615 86.1032 29.1682L86.0988 29.1638ZM10.4147 31.1629C26.7233 26.7105 43.1825 22.2001 59.4866 17.7521C61.3701 17.1377 63.3599 17.1911 65.1547 18.0282C66.9762 18.8029 68.8109 19.5999 70.619 20.388C71.2084 20.6729 72.7994 21.2874 71.8776 21.9775C56.0299 27.2804 39.6638 31.6928 23.6521 36.6484C17.6339 39.2397 15.2142 36.1319 10.007 33.6474C9.44418 33.3001 8.40717 32.8816 8.43376 32.1915C8.53569 31.6883 9.75883 31.3455 10.4103 31.1674L10.4147 31.1629ZM34.3325 99.2813C24.9639 94.1832 15.5776 89.1252 6.23122 83.9915C5.30057 83.4884 4.34776 82.8294 3.8913 81.8944C2.53077 67.366 3.82482 52.3434 3.39495 37.6636C3.37279 36.3679 3.38608 34.2619 5.28727 35.0945C15.0237 40.2237 24.6581 45.6602 34.3635 50.8073C36.3223 51.6978 37.377 53.3585 37.2795 55.5224C37.284 59.4629 37.2795 63.3988 37.2795 67.3304L16.6545 57.8333C15.325 57.2188 13.8005 58.1672 13.7518 59.6365L13.2599 74.3742C13.2333 75.1801 13.6764 75.9237 14.3899 76.2843L37.2751 87.7806C37.2751 91.1066 37.2751 94.4281 37.2662 97.7408C37.3017 100.212 36.3134 100.417 34.3236 99.2813H34.3325ZM35.786 47.3343C33.0783 45.8962 30.3572 44.4536 27.6539 43.011C26.4441 42.3832 24.8177 41.2567 26.9803 40.4063C43.249 35.6644 59.367 30.13 75.7154 25.8333C75.7154 25.9803 75.7066 26.1228 75.7066 26.2697C75.7066 29.7426 76.3846 33.0552 77.6033 36.0918C66.0278 39.8364 54.4434 43.5275 42.89 47.3744C40.4083 48.3228 38.1836 48.8125 35.7905 47.3388L35.786 47.3343ZM76.7834 18.8029C76.7214 19.0166 76.6594 19.2348 76.6018 19.4485C76.6594 19.2303 76.7214 19.0166 76.7834 18.8029ZM76.0877 21.8128C76.0744 21.884 76.0611 21.9508 76.0522 22.022C76.0655 21.9508 76.0788 21.884 76.0877 21.8128ZM75.9414 22.7968C75.9281 22.8903 75.9193 22.9793 75.906 23.0728C75.9148 22.9793 75.9281 22.8903 75.9414 22.7968ZM97.5857 81.8944C96.9564 82.6469 95.8441 83.0432 94.878 83.3504C92.2721 84.1963 89.6619 85.0646 87.0561 85.9194C80.2003 88.159 73.3179 90.412 66.4311 92.7006C58.9858 95.1717 51.5406 97.6473 44.1043 100.043C43.2268 100.341 41.8486 100.751 41.2459 100.096C40.7229 99.6019 40.6609 98.3953 40.6653 97.5627C40.6653 83.9025 40.6653 70.2601 40.6564 56.591C40.5457 53.8706 41.3877 52.3389 44.0467 51.6265C55.8704 47.6861 67.6985 43.8347 79.5266 39.9477C83.5595 46.5819 90.4419 51.2703 98.4676 52.3122C98.4676 54.1956 98.4676 56.0834 98.4676 57.9624C98.4676 64.5698 98.4588 71.1862 98.4721 77.7981C98.4721 79.1784 98.5297 80.8169 97.5857 81.89V81.8944ZM78.4453 37.9752C78.4941 38.0732 78.5473 38.1756 78.596 38.2735C78.5473 38.1756 78.4941 38.0776 78.4453 37.9752ZM78.955 38.9548C79.0436 39.1195 79.1411 39.2798 79.2342 39.4401C79.1411 39.2798 79.048 39.1195 78.955 38.9548ZM99.8237 52.4547C99.9611 52.4636 100.098 52.4769 100.24 52.4858C100.103 52.4769 99.9655 52.4636 99.8237 52.4547Z" fill="white"/>
</g>
<defs>
<clipPath id="clip0_122_13">
<rect width="128" height="106" fill="white"/>
</clipPath>
</defs>
</svg>
