<svg width="61" height="11" viewBox="0 0 61 11" fill="none" xmlns="http://www.w3.org/2000/svg">
<g clip-path="url(#clip0_157_108)">
<path d="M5.04884 3.23939V7.75905C5.04884 7.93884 5.1924 8.08454 5.36955 8.08454C6.0522 8.08454 6.60504 8.64562 6.60504 9.33844V9.50739C6.60504 10.2002 6.0522 10.7613 5.36955 10.7613H1.31795C0.58949 10.7597 0 10.1599 0 9.42214V9.33844C0 8.64562 0.552838 8.08608 1.23396 8.08608C1.41111 8.08608 1.55467 7.94039 1.55467 7.7606V3.24094C1.55467 3.06114 1.41111 2.91545 1.23396 2.91545C0.552838 2.91545 0 2.35437 0 1.66154V1.49259C0 0.801316 0.552838 0.240234 1.23396 0.240234H5.28556C6.01402 0.240234 6.60351 0.838515 6.60351 1.57784V1.66154C6.60351 2.35437 6.05067 2.91545 5.36802 2.91545C5.19087 2.91545 5.04732 3.06114 5.04732 3.24094L5.04884 3.23939Z" fill="#223FC7"/>
<path d="M18.123 4.6731V10.4343C18.123 10.6141 17.9795 10.7598 17.8023 10.7598H14.948C14.7709 10.7598 14.6273 10.6141 14.6273 10.4343V4.7785C14.6273 3.45639 14.0195 2.87051 13.0879 2.87051C12.1563 2.87051 11.4599 3.50134 11.4599 4.89939V10.4358C11.4599 10.6156 11.3164 10.7613 11.1392 10.7613H8.28494C8.10779 10.7613 7.96423 10.6156 7.96423 10.4358V0.565732C7.96423 0.385938 8.10779 0.240242 8.28494 0.240242H11.0354C11.2125 0.240242 11.3561 0.385938 11.3561 0.565732C11.3561 0.838523 11.6707 0.991968 11.8769 0.816824C12.4969 0.289841 13.2956 0 14.2577 0C16.7012 0 18.1215 1.66775 18.1215 4.6731H18.123Z" fill="#223FC7"/>
<path d="M26.9409 3.36028C26.6629 3.25333 26.3804 3.16034 26.0872 3.08439C25.8856 3.03169 25.6871 3.18824 25.6871 3.40058V10.4358C25.6871 10.6156 25.5435 10.7613 25.3664 10.7613H22.5121C22.3349 10.7613 22.1914 10.6156 22.1914 10.4358V3.39903C22.1914 3.18669 21.9944 3.03014 21.7912 3.08284C21.498 3.15879 21.2155 3.25178 20.9375 3.35873C20.2564 3.62377 19.4898 3.32308 19.1828 2.65195L19.1721 2.62715C18.8423 1.90643 19.1691 1.04465 19.896 0.750163C21.1269 0.254179 22.5212 -0.00311279 23.9384 -0.00311279C25.3557 -0.00311279 26.75 0.254179 27.9809 0.750163C28.7078 1.0431 29.0346 1.90643 28.7048 2.6256L28.6941 2.6504C28.3871 3.32153 27.6205 3.62222 26.9393 3.35718L26.9409 3.36028Z" fill="#223FC7"/>
<path d="M38.5414 8.76962C38.8453 9.53375 38.4223 10.3924 37.6404 10.6094C36.7393 10.8574 35.7009 11.0016 34.6761 11.0016C31.0934 11.0016 29.2424 9.63449 29.2424 7.72495C29.2424 6.83063 29.6594 6.05566 30.4306 5.55812C30.6123 5.44033 30.623 5.17374 30.4596 5.03269C29.9342 4.58165 29.6731 3.95857 29.6731 3.2766C29.6731 1.5639 31.2873 0 34.8853 0C35.7177 0 36.5408 0.0914471 37.2876 0.249542C38.0894 0.420037 38.549 1.27871 38.2635 2.05833C38.0252 2.70776 37.3456 3.06735 36.6813 2.90461C36.1132 2.76666 35.5665 2.70466 35.0182 2.70466C33.7445 2.70466 33.1963 3.02085 33.1963 3.50134C33.1963 3.89193 33.433 4.14767 34.1584 4.14767H36.8737C37.0509 4.14767 37.1944 4.29336 37.1944 4.47316V6.4385C37.1944 6.61829 37.0509 6.76398 36.8737 6.76398H33.9217C33.1215 6.76398 32.7672 7.04918 32.7672 7.48471C32.7672 7.9652 33.3292 8.29689 34.8105 8.29689C35.4489 8.29689 36.1911 8.17909 36.8829 7.96985C37.5579 7.76525 38.2772 8.10159 38.5414 8.76652V8.77117V8.76962Z" fill="#223FC7"/>
<path d="M39.3538 5.49923C39.3538 2.26758 41.7972 0 45.128 0C47.0293 0 48.5519 0.660279 49.5767 1.85529C49.6912 1.98859 49.6775 2.19318 49.5477 2.31098L47.8158 3.88108C47.6845 4.00042 47.4829 3.98647 47.3638 3.85473C46.8003 3.227 46.1344 2.87051 45.3052 2.87051C43.8543 2.87051 42.877 3.89193 42.877 5.50078C42.877 7.10962 43.8543 8.13104 45.3052 8.13104C46.1344 8.13104 46.7987 7.77455 47.3638 7.14682C47.4829 7.01353 47.683 6.99958 47.8158 7.12047L49.5477 8.69057C49.679 8.80837 49.6912 9.01296 49.5767 9.14626C48.5519 10.3413 47.0278 11.0016 45.128 11.0016C41.7972 11.0016 39.3538 8.73242 39.3538 5.50233V5.49923Z" fill="#223FC7"/>
<path d="M61 0.565724V10.4358C61 10.6156 60.8564 10.7613 60.6792 10.7613H57.825C57.6478 10.7613 57.5043 10.6156 57.5043 10.4358V7.20881C57.5043 7.02902 57.3607 6.88332 57.1835 6.88332H54.595C54.4178 6.88332 54.2743 7.02902 54.2743 7.20881V10.4358C54.2743 10.6156 54.1307 10.7613 53.9536 10.7613H51.0993C50.9221 10.7613 50.7786 10.6156 50.7786 10.4358V0.565724C50.7786 0.38593 50.9221 0.240234 51.0993 0.240234H53.9536C54.1307 0.240234 54.2743 0.38593 54.2743 0.565724V3.64238C54.2743 3.82217 54.4178 3.96787 54.595 3.96787H57.1835C57.3607 3.96787 57.5043 3.82217 57.5043 3.64238V0.565724C57.5043 0.38593 57.6478 0.240234 57.825 0.240234H60.6792C60.8564 0.240234 61 0.38593 61 0.565724Z" fill="#223FC7"/>
</g>
<defs>
<clipPath id="clip0_157_108">
<rect width="61" height="11" fill="white"/>
</clipPath>
</defs>
</svg>
