<svg width="81" height="39" viewBox="0 0 81 39" fill="none" xmlns="http://www.w3.org/2000/svg">
<path d="M17.2269 15.8702C18.3494 15.8622 19.6989 15.8463 19.7148 14.2938C19.7308 12.7373 18.429 12.7055 17.2707 12.6975C14.7946 12.6895 12.3186 12.6975 9.84261 12.6975V12.7055C7.19144 12.7055 4.53629 12.6935 1.88512 12.7134C0.921782 12.7214 0.0500087 13.0279 0.00223984 14.1385C-0.0495097 15.3208 0.802366 15.7348 1.84134 15.8503C2.0762 15.8741 2.31105 15.8821 2.54591 15.8821C7.43824 15.8821 12.3306 15.898 17.2229 15.8702H17.2269Z" fill="#223FC7"/>
<path d="M21.3867 7.45083C19.1535 7.415 16.9163 7.43888 14.6831 7.43888V7.42694C12.5654 7.42694 10.4476 7.42296 8.33387 7.42694C7.21927 7.42694 6.04893 7.55034 6.01708 8.97545C5.98921 10.4085 7.18343 10.5956 8.27814 10.6036C12.6291 10.6354 16.98 10.6354 21.3349 10.6036C22.4296 10.5956 23.6159 10.4085 23.5801 8.96749C23.5443 7.65782 22.4336 7.46675 21.3907 7.45083H21.3867Z" fill="#223FC7"/>
<path d="M16.7014 23.0673C12.5973 23.0116 8.48914 23.0116 4.385 23.0673C3.42166 23.0793 2.70115 23.6565 2.74095 24.7512C2.78076 25.9056 3.60081 26.1723 4.57211 26.1763C6.56645 26.1842 8.56079 26.1763 10.5591 26.1763V26.1643C12.5535 26.1643 14.5478 26.1882 16.5422 26.1524C17.5294 26.1365 18.2818 25.6906 18.2977 24.5959C18.3136 23.5808 17.5772 23.0713 16.7014 23.0593V23.0673Z" fill="#223FC7"/>
<path d="M19.472 17.8924C16.0645 17.8367 12.657 17.8367 9.24551 17.8924C8.44538 17.9043 7.84828 18.4815 7.88012 19.5762C7.91595 20.7306 8.59666 20.9974 9.40077 21.0013C11.0568 21.0093 12.7127 21.0013 14.3687 21.0013V20.9894C16.0247 20.9894 17.6807 21.0133 19.3367 20.9775C20.1567 20.9615 20.7817 20.5157 20.7936 19.421C20.8056 18.4059 20.1965 17.8964 19.468 17.8844L19.472 17.8924Z" fill="#223FC7"/>
<path d="M77.754 14.5764C75.887 10.3687 72.6188 8.10769 67.8937 8.1674C66.8906 8.17934 65.8874 8.13157 64.8882 8.1674C63.7139 8.21119 63.292 7.63398 63.3994 6.54326C63.4512 6.0178 63.491 5.48836 63.5627 4.96688C64.0125 1.65093 62.663 0.0347523 59.351 0.0148486C54.8727 -0.0130165 50.3904 0.00688697 45.9121 0.00688697C41.4895 0.00688697 37.0708 -0.00505524 32.6482 0.00688697C28.8466 0.0188292 27.123 1.74249 26.9001 5.59186C26.7607 7.99224 26.5338 10.3926 26.287 12.7851C25.6939 18.5691 25.0251 24.3451 24.4678 30.1291C24.2807 32.0717 25.0212 33.0589 26.498 33.3097C27.947 33.5565 28.6158 33.453 29.1054 32.5972C29.1054 32.5255 29.0934 32.4579 29.0934 32.3862C29.0934 28.2104 32.4811 24.8228 36.6568 24.8228C40.8326 24.8228 44.2202 28.2104 44.2202 32.3862C44.2202 32.6529 44.2043 32.9156 44.1805 33.1784C44.3795 33.2938 44.6382 33.3615 44.9846 33.3615C49.3435 33.3495 53.7024 33.3615 58.0613 33.3933C58.9052 33.3973 59.4346 33.1585 59.7571 32.5414C59.7571 32.4897 59.7491 32.4379 59.7491 32.3862C59.7491 28.2104 63.1367 24.8228 67.3125 24.8228C71.4883 24.8228 74.8759 28.2104 74.8759 32.3862C74.8759 32.6688 74.856 32.9435 74.8281 33.2182C74.8719 33.2381 74.9117 33.258 74.9595 33.2739C76.9101 33.9188 79.2905 32.641 79.6209 30.6307C80.5285 25.1094 80.027 19.7115 77.75 14.5764H77.754ZM72.5472 18.8238C71.4286 18.8159 70.31 18.8238 69.1914 18.8238V18.8517C68.6023 18.8517 68.0131 18.8238 67.424 18.8557C64.7887 18.999 64.6096 18.8039 64.9957 16.109C65.4097 13.219 66.7233 12.4507 69.5935 13.3901C71.6993 14.0788 72.794 15.6751 73.4866 17.6415C73.7971 18.5213 73.3792 18.8318 72.5472 18.8238Z" fill="#223FC7"/>
<path d="M36.6608 38.3572C39.9586 38.3572 42.6319 35.6839 42.6319 32.3861C42.6319 29.0884 39.9586 26.415 36.6608 26.415C33.3631 26.415 30.6897 29.0884 30.6897 32.3861C30.6897 35.6839 33.3631 38.3572 36.6608 38.3572Z" fill="#223FC7"/>
<path d="M67.3125 38.3572C70.6103 38.3572 73.2836 35.6839 73.2836 32.3861C73.2836 29.0884 70.6103 26.415 67.3125 26.415C64.0148 26.415 61.3414 29.0884 61.3414 32.3861C61.3414 35.6839 64.0148 38.3572 67.3125 38.3572Z" fill="#223FC7"/>
</svg>
