<svg width="188" height="154" viewBox="0 0 188 154" fill="none" xmlns="http://www.w3.org/2000/svg">
<g clip-path="url(#clip0_106_336)">
<path d="M115 132.56C114.23 130.98 112.94 130.03 111.56 130.03H9.12C7.64 130.03 6.27 131.12 5.53 132.9L0.580002 144.73C-1.03 148.57 0.970002 153.38 4.17 153.38H117.34C120.67 153.38 122.65 148.21 120.78 144.39L115 132.56Z" fill="url(#paint0_linear_106_336)"/>
<path d="M60.75 22.9C67.0737 22.9 72.2 17.7737 72.2 11.45C72.2 5.12634 67.0737 0 60.75 0C54.4263 0 49.3 5.12634 49.3 11.45C49.3 17.7737 54.4263 22.9 60.75 22.9Z" fill="url(#paint1_linear_106_336)"/>
<path d="M21.88 125.89L100.78 125.43C108.76 125.11 114.88 118.33 114.27 110.48L108.97 38.86C108.39 31.35 101.85 25.66 94.22 26.02L20.61 33.62C13.09 33.98 7.17 40.09 7.17 47.51V111.99C7.17 119.9 13.85 126.21 21.87 125.89H21.88ZM71.92 52.9L87.18 52.25C90.55 52.11 93.39 54.72 93.54 58.08L95.06 93.57C95.2 96.94 92.59 99.78 89.23 99.93L73.97 100.58C70.6 100.72 67.76 98.11 67.61 94.75L66.09 59.26C65.95 55.89 68.56 53.05 71.92 52.9ZM27.89 62.35C27.89 59.27 30.39 56.78 33.46 56.78H49.78C52.86 56.78 55.35 59.28 55.35 62.35V94.7C55.35 97.78 52.85 100.27 49.78 100.27H33.46C30.38 100.27 27.89 97.78 27.89 94.7V62.35Z" fill="url(#paint2_linear_106_336)"/>
<path d="M167.51 90.15L157.94 87.84C155.66 87.29 153.37 88.74 152.89 91.04C152.01 95.28 150.76 99.37 148.43 103.14C145.39 108.05 138.09 117.08 134.06 121.21C130.97 124.38 127.25 126.49 123.3 128.29C121.15 129.27 120.25 131.83 121.3 133.93L125.71 142.73C126.72 144.75 129.16 145.57 131.22 144.63C140.63 140.31 149.44 133.15 156.49 124.29C163.53 115.43 168.52 105.24 170.61 95.09C171.07 92.87 169.72 90.68 167.52 90.15H167.51Z" fill="url(#paint3_linear_106_336)"/>
<path d="M184.66 56.69C183.81 55.28 181.88 54.98 180.58 55.98L177.24 58.53C176.13 59.38 175.78 60.93 176.49 62.13C177.61 64.03 178.04 66.06 177.61 68.3C176.71 73.02 172.83 75.57 167.68 74.58C162.53 73.59 159.86 69.79 160.77 65.07C161.2 62.82 162.35 61.1 164.09 59.75C165.19 58.89 165.44 57.32 164.72 56.12L162.56 52.52C161.71 51.11 159.82 50.68 158.5 51.67C154.94 54.37 152.48 58.51 151.45 63.89C149.38 74.72 155.13 84.06 165.48 86.04C175.83 88.02 184.62 81.47 186.69 70.64C187.72 65.26 186.97 60.5 184.65 56.68L184.66 56.69Z" fill="url(#paint4_linear_106_336)"/>
</g>
<defs>
<linearGradient id="paint0_linear_106_336" x1="1.81286e-06" y1="141.7" x2="121.5" y2="141.7" gradientUnits="userSpaceOnUse">
<stop stop-color="#54BAED"/>
<stop offset="0.13" stop-color="#50B1EA"/>
<stop offset="0.35" stop-color="#4699E3"/>
<stop offset="0.62" stop-color="#3773D7"/>
<stop offset="0.93" stop-color="#223FC7"/>
</linearGradient>
<linearGradient id="paint1_linear_106_336" x1="49.3" y1="11.45" x2="72.2" y2="11.45" gradientUnits="userSpaceOnUse">
<stop stop-color="#54BAED"/>
<stop offset="0.13" stop-color="#50B1EA"/>
<stop offset="0.35" stop-color="#4699E3"/>
<stop offset="0.62" stop-color="#3773D7"/>
<stop offset="0.93" stop-color="#223FC7"/>
</linearGradient>
<linearGradient id="paint2_linear_106_336" x1="7.18" y1="75.96" x2="114.32" y2="75.96" gradientUnits="userSpaceOnUse">
<stop stop-color="#54BAED"/>
<stop offset="0.13" stop-color="#50B1EA"/>
<stop offset="0.35" stop-color="#4699E3"/>
<stop offset="0.62" stop-color="#3773D7"/>
<stop offset="0.93" stop-color="#223FC7"/>
</linearGradient>
<linearGradient id="paint3_linear_106_336" x1="120.86" y1="116.36" x2="170.69" y2="116.36" gradientUnits="userSpaceOnUse">
<stop stop-color="#54BAED"/>
<stop offset="0.13" stop-color="#50B1EA"/>
<stop offset="0.35" stop-color="#4699E3"/>
<stop offset="0.62" stop-color="#3773D7"/>
<stop offset="0.93" stop-color="#223FC7"/>
</linearGradient>
<linearGradient id="paint4_linear_106_336" x1="151.04" y1="68.77" x2="187.14" y2="68.77" gradientUnits="userSpaceOnUse">
<stop stop-color="#54BAED"/>
<stop offset="0.13" stop-color="#50B1EA"/>
<stop offset="0.35" stop-color="#4699E3"/>
<stop offset="0.62" stop-color="#3773D7"/>
<stop offset="0.93" stop-color="#223FC7"/>
</linearGradient>
<clipPath id="clip0_106_336">
<rect width="187.14" height="153.38" fill="white"/>
</clipPath>
</defs>
</svg>
