<svg width="69" height="57" viewBox="0 0 69 57" fill="none" xmlns="http://www.w3.org/2000/svg">
<path d="M54.8769 0.00476832C48.733 0.00476832 43.5118 3.94569 41.595 9.43629C41.5163 9.64848 41.4424 9.86305 41.3733 10.08C39.5947 9.31709 37.8162 8.55179 36.0472 7.78411C34.755 7.18331 33.3913 6.55152 31.9394 7.01166C26.5084 8.50411 21.1322 9.96795 15.6965 11.4795C10.933 12.7788 6.05514 14.0591 1.33461 15.4204C-0.0505545 15.8329 -0.017177 17.5065 0.00666404 18.7081C0.0114323 20.9801 0.00666404 23.2236 0.00666404 25.5004C0.00666404 29.6917 0.00666404 33.9115 0.00666404 38.1171C0.00666404 40.0434 0.00666404 41.9722 0.00666404 43.8938C0.0114323 44.6615 0.0209687 45.5579 0.507326 46.1491C1.5611 47.2482 3.13461 47.6821 4.4411 48.4999C9.4811 51.2201 14.5879 53.8713 19.6398 56.5915C20.7102 57.2472 21.8808 57.0159 22.9775 56.5796C25.4904 55.7619 27.9627 54.9751 30.435 54.174C37.5182 51.8638 44.63 49.6228 51.7036 47.2744C52.9505 46.8668 54.6242 46.5568 54.7314 44.9642C54.853 39.4331 54.7958 33.902 54.7839 28.3709C54.5884 28.3709 54.3953 28.3637 54.1998 28.3566C54.3977 28.3637 54.5932 28.3709 54.7934 28.3709C60.9087 28.3709 66.1108 24.4657 68.0467 19.0132C68.626 17.4731 68.9431 15.8066 68.9431 14.0662C68.9431 6.29881 62.6443 0 54.8769 0V0.00476832ZM5.60216 16.9295C14.3757 14.5454 23.2302 12.1303 32.0014 9.74861C33.0146 9.4196 34.0851 9.44821 35.0506 9.89642C36.0305 10.3113 37.0175 10.738 37.9902 11.16C38.3073 11.3126 39.1632 11.6416 38.6673 12.0111C30.1418 14.8506 21.3373 17.2132 12.7235 19.8668C9.48587 21.2543 8.18415 19.5902 5.38282 18.2599C5.08004 18.0739 4.52216 17.8498 4.53647 17.4803C4.5913 17.2109 5.24931 17.0273 5.59978 16.9319L5.60216 16.9295ZM20.0546 36.2956L8.95898 31.2103C8.24375 30.8813 7.42362 31.3891 7.39739 32.1759L7.13276 40.0673C7.11845 40.4988 7.35686 40.897 7.74071 41.0901L20.0522 47.2458C20.0522 49.0268 20.0522 50.8053 20.0475 52.5791C20.0665 53.9023 19.5349 54.0119 18.4644 53.404C13.4244 50.6742 8.37488 47.9658 3.3468 45.217C2.84613 44.9476 2.33355 44.5947 2.08799 44.094C1.35607 36.3147 2.05223 28.2707 1.82097 20.4103C1.80905 19.7166 1.8162 18.5889 2.83898 19.0347C8.07686 21.7812 13.2599 24.6922 18.4811 27.4482C19.5349 27.925 20.1023 28.8143 20.0498 29.973C20.0522 32.0829 20.0498 34.1905 20.0498 36.2956H20.0546ZM19.2512 25.5886C17.7945 24.8185 16.3306 24.0461 14.8763 23.2736C14.2255 22.9375 13.3505 22.3343 14.514 21.8789C23.266 19.3399 31.937 16.3764 40.732 14.0758C40.732 14.1544 40.7272 14.2307 40.7272 14.3094C40.7272 16.169 41.092 17.9428 41.7476 19.5687C35.5203 21.5738 29.2883 23.5502 23.0729 25.6101C21.7378 26.1179 20.541 26.3801 19.2536 25.591L19.2512 25.5886ZM52.4975 44.094C52.159 44.497 51.5606 44.7091 51.0408 44.8736C49.639 45.3266 48.2347 45.7915 46.8329 46.2493C43.1447 47.4485 39.4422 48.6548 35.7373 49.8803C31.732 51.2034 27.7267 52.529 23.7261 53.8117C23.2541 53.9714 22.5126 54.1907 22.1884 53.8403C21.9071 53.5756 21.8737 52.9295 21.8761 52.4837C21.8761 45.1693 21.8761 37.8644 21.8713 30.5452C21.8117 29.0885 22.2647 28.2683 23.6951 27.8869C30.0559 25.777 36.4191 23.7147 42.7823 21.6334C44.9518 25.1857 48.6544 27.6962 52.9696 28.254C52.9696 29.2625 52.9696 30.2734 52.9696 31.2795C52.9696 34.8175 52.9648 38.3603 52.972 41.9007C52.972 42.6397 53.003 43.5171 52.4951 44.0917L52.4975 44.094ZM55.1749 26.0487C48.6687 26.0487 43.3759 20.756 43.3759 14.2498C43.3759 7.74358 48.6687 2.45086 55.1749 2.45086C61.6811 2.45086 66.9738 7.74358 66.9738 14.2498C66.9738 20.756 61.6811 26.0487 55.1749 26.0487Z" fill="#223FC7"/>
<path d="M55.1749 4.94934C50.0467 4.94934 45.8745 9.12153 45.8745 14.2497C45.8745 19.3779 50.0467 23.5501 55.1749 23.5501C60.3031 23.5501 64.4753 19.3779 64.4753 14.2497C64.4753 9.12153 60.3031 4.94934 55.1749 4.94934ZM59.5044 11.8823L55.821 15.1176C55.5921 15.263 54.9031 15.263 54.9031 15.263C54.4931 15.263 54.1617 14.9316 54.1617 14.5215V7.89848C54.1617 7.48841 54.4931 7.15702 54.9031 7.15702H55.3275C55.7376 7.15702 56.0689 7.48841 56.0689 7.89848V12.7907L58.4602 10.6927C58.7344 10.4519 59.154 10.4781 59.3972 10.7523L59.5664 10.9454C59.8072 11.2195 59.781 11.6391 59.5068 11.8823H59.5044Z" fill="#223FC7"/>
</svg>
