<svg width="63" height="48" viewBox="0 0 63 48" fill="none" xmlns="http://www.w3.org/2000/svg">
<path d="M61.8869 38.1071H58.7492C58.703 38.0693 58.6904 38.0103 58.6988 37.9178C58.703 37.8547 58.6988 37.7915 58.6988 37.7284C58.6988 32.2833 58.6988 26.8383 58.6988 21.3932C58.6988 21.0271 58.6988 20.6568 58.6988 20.2907C58.6988 20.0551 58.6694 19.8194 58.535 19.6174C58.3082 19.2724 57.9764 19.1461 57.5731 19.1461C54.7253 19.1461 51.8817 19.1461 49.0338 19.1461C48.7818 19.1461 48.7734 19.1377 48.7734 18.8937C48.7734 18.8305 48.7734 18.7674 48.7734 18.7043C48.7734 12.8763 48.7734 7.05251 48.7734 1.22451C48.7734 1.06461 48.7692 0.904708 48.7272 0.749014C48.6348 0.382923 48.2231 0.0589112 47.8451 0.0168318C47.7317 0.00420794 47.6141 0 47.4965 0C43.7119 0 39.9274 0 36.1429 0C33.5135 0 30.8841 0 28.2505 0C28.1916 0 28.137 0 28.0782 0C27.339 0.00420794 26.9399 0.40817 26.9399 1.14456C26.9399 7.01464 26.9399 12.8847 26.9399 18.7548C26.9399 18.8179 26.9357 18.881 26.9399 18.9442C26.9525 19.0872 26.8979 19.163 26.7467 19.1503C26.6837 19.1461 26.6207 19.1503 26.5577 19.1503C23.7645 19.1503 20.967 19.1503 18.1738 19.1503C17.968 19.1503 17.7663 19.163 17.5815 19.2598C17.1657 19.4701 17.0187 19.8278 17.0187 20.2781C17.0187 26.1061 17.0187 31.9299 17.0187 37.7579C17.0187 37.8294 17.0145 37.8967 17.0187 37.9683C17.0229 38.0398 17.0103 38.0861 16.9767 38.1155H13.3812C13.3518 38.0861 13.335 38.0398 13.3308 37.9767C13.1922 36.5712 13.0493 35.1616 12.9065 33.7561C12.7469 32.2244 12.5831 30.6927 12.4277 29.1568C12.2051 26.9855 11.9908 24.8142 11.7682 22.6471C11.5708 20.7283 11.3692 18.8137 11.1718 16.8949C10.9576 14.8078 10.7434 12.7206 10.5291 10.6293C10.3107 8.51688 10.1007 6.40449 9.88227 4.2921C9.76886 3.21908 9.32362 2.19655 8.56755 1.42228C7.61407 0.45025 6.43798 0.00841588 5.08967 0.00420794C3.85476 0 2.61565 0 1.38074 0.00420794C1.16233 0.00420794 0.9523 0.0210397 0.742282 0.0504953C-0.131392 0.172526 -0.278397 1.38021 0.540673 1.70842L0.969118 1.88095C1.14553 1.95249 1.33455 1.98615 1.52357 1.98615C2.76687 1.97773 4.01436 1.97773 5.25767 1.98615C6.60598 1.99877 7.8031 3.11388 7.92071 4.46042C8.00051 5.39037 8.10551 6.31612 8.19792 7.24187C8.34493 8.68099 8.49614 10.1201 8.64315 11.555C8.75236 12.6028 8.85738 13.6506 8.96239 14.6983C9.0968 15.9986 9.23122 17.2989 9.36563 18.5949C9.47484 19.6427 9.57985 20.6905 9.68486 21.7382C9.80667 22.9165 9.92848 24.0989 10.0503 25.2771C10.1595 26.3249 10.2645 27.3727 10.3737 28.4204C10.4829 29.4808 10.5921 30.5412 10.6971 31.6016C10.8063 32.6536 10.9156 33.7098 11.0206 34.7618C11.1298 35.8222 11.2348 36.8826 11.3482 37.943C11.3566 38.0272 11.3482 38.0819 11.3188 38.1155H6.45058C5.82473 38.1155 5.31648 38.6247 5.31648 39.2517V39.2601C5.31648 39.8871 5.82473 40.3962 6.45058 40.3962H11.9068C10.9702 41.1873 10.3737 42.3698 10.3737 43.6911C10.3737 46.0728 12.3017 48 14.6749 48C17.0481 48 18.9761 46.0686 18.9761 43.6911C18.9761 42.3698 18.3796 41.1873 17.4429 40.3962H54.7967C53.86 41.1873 53.2636 42.3698 53.2636 43.6911C53.2636 46.0728 55.1915 48 57.5647 48C59.9379 48 61.8659 46.0686 61.8659 43.6911C61.8659 42.3698 61.2695 41.1873 60.3328 40.3962H61.8659C62.4918 40.3962 63 39.8871 63 39.2601V39.2517C63 38.6247 62.4918 38.1155 61.8659 38.1155L61.8869 38.1071ZM36.836 38.1071H19.0349C18.9971 38.0693 18.997 37.9935 18.997 37.8462C18.997 32.3759 18.997 26.9056 18.997 21.4353C18.997 21.2333 19.0979 21.1323 19.2995 21.1323C20.7948 21.1323 22.2901 21.1323 23.7855 21.1323C24.0459 21.1323 24.0501 21.1323 24.0501 21.3974C24.0501 23.1689 24.0501 24.9405 24.0501 26.7078C24.0501 27.3979 24.4491 27.7977 25.1338 27.7977C26.9987 27.7977 28.8595 27.7977 30.7244 27.7977C31.4091 27.7977 31.8165 27.3937 31.8165 26.712C31.8165 24.9405 31.8165 23.1689 31.8165 21.4016C31.8165 21.1323 31.8165 21.1323 32.077 21.1323C33.5849 21.1323 35.0928 21.1323 36.6008 21.1323C36.8654 21.1323 36.8654 21.1323 36.8654 21.3974C36.8654 26.893 36.8654 32.3885 36.8654 37.8841C36.8654 38.0103 36.8654 38.0777 36.8318 38.1113L36.836 38.1071ZM29.5987 19.0199C29.4223 19.0199 29.2459 19.0157 29.0653 19.0199C28.9687 19.0199 28.9225 18.982 28.9225 18.8852C28.9225 18.8263 28.9225 18.7716 28.9225 18.7127C28.9225 13.2382 28.9225 7.75945 28.9225 2.28491C28.9225 2.08293 29.0233 1.98194 29.2249 1.98194C30.7202 1.98194 32.2156 1.98194 33.7109 1.98194C33.9755 1.98194 33.9755 1.98194 33.9755 2.24283C33.9755 4.01438 33.9755 5.78171 33.9755 7.55326C33.9755 8.26019 34.362 8.64732 35.0676 8.64732C36.9242 8.64732 38.7807 8.64732 40.6373 8.64732C41.3472 8.64732 41.7378 8.25177 41.7378 7.53222C41.7378 5.7733 41.7378 4.01858 41.7378 2.25967C41.7378 2.07171 41.833 1.97773 42.0234 1.97773C43.5271 1.97773 45.0267 1.97773 46.5304 1.97773C46.7908 1.97773 46.7908 1.97773 46.7908 2.24283C46.7908 7.75103 46.7908 13.2592 46.795 18.7674C46.795 18.961 46.7404 19.0325 46.5514 19.0157C46.4506 19.0073 46.3498 19.0157 46.249 19.0157C43.4473 19.0157 40.6457 19.0157 37.8441 19.0157C35.0424 19.0157 32.3416 19.0157 29.5945 19.0157L29.5987 19.0199ZM38.8479 37.8462C38.8479 32.3759 38.8479 26.9056 38.8479 21.4353C38.8479 21.2333 38.9487 21.1323 39.1504 21.1323C40.6415 21.1323 42.1284 21.1323 43.6195 21.1323C43.8044 21.1323 43.8982 21.2277 43.901 21.4184C43.901 23.1773 43.901 24.9321 43.901 26.691C43.901 27.4105 44.2874 27.7977 45.0015 27.7977C46.858 27.7977 48.7146 27.7977 50.5711 27.7977C51.2558 27.7977 51.6632 27.3937 51.6632 26.712C51.6632 24.9489 51.6632 23.1858 51.6632 21.4184C51.6632 21.2277 51.757 21.1323 51.9447 21.1323C53.4484 21.1323 54.9479 21.1323 56.4516 21.1323C56.7163 21.1323 56.7163 21.1323 56.7163 21.3974C56.7163 26.893 56.7163 32.3885 56.7163 37.8841C56.7163 38.0103 56.7163 38.0777 56.6827 38.1113H38.8816C38.8438 38.0735 38.8437 37.9977 38.8437 37.8462H38.8479Z" fill="#223FC7"/>
</svg>
