<svg width="83" height="106" viewBox="0 0 83 106" fill="none" xmlns="http://www.w3.org/2000/svg">
<g clip-path="url(#clip0_122_3)">
<path d="M76.4812 45.8814C76.1087 45.1199 76.0974 44.5108 76.6223 43.8057C77.8471 42.1417 78.8855 40.3592 79.9071 38.5598C82.001 34.8764 82.9436 30.8151 83 26.6974C83.0395 23.6571 82.5654 20.5322 81.431 17.5877C78.8009 10.7568 74.4437 5.49405 67.6823 2.48756C62.8398 0.33281 57.811 -0.597905 52.4549 0.406139C48.8428 1.08302 45.4677 2.21116 42.3804 4.17413C37.4928 7.27651 34.0895 11.665 32.0012 16.9898C30.15 21.7167 29.7549 26.6692 30.816 31.6612C31.1998 33.4663 31.2788 33.4832 29.4389 33.4888C23.8457 33.4945 18.2469 33.5678 12.6537 33.4493C10.7856 33.4099 9.7471 34.0134 8.96823 35.7169C6.45667 41.2279 4.07492 46.8178 1.13442 52.0975C-1.42793 56.6947 0.767567 61.7036 3.60083 64.1855C4.65625 65.1106 5.00053 65.9849 4.99489 67.2992C4.95538 79.139 4.96667 90.9845 4.97231 102.824C4.97231 105.6 5.39561 106.006 8.14986 106.006C18.8677 106.006 29.5912 106.006 40.3091 106.006C51.2189 106.006 62.123 106.006 73.0328 106.006C75.138 106.006 75.7362 105.402 75.7701 103.343C75.7757 102.824 75.7701 102.311 75.7701 101.792C75.7701 90.1835 75.7701 78.5806 75.7644 66.972C75.7644 66.0131 75.7644 65.088 76.6788 64.4563C78.8686 62.9615 79.9128 60.6544 80.5787 58.2628C80.9738 56.8413 81.0698 55.2676 80.2683 53.7502C78.9081 51.1837 77.7568 48.5044 76.4756 45.8927L76.4812 45.8814ZM38.5256 12.6916C44.9202 4.0049 56.2815 1.58505 65.3739 5.34175C71.5597 7.89699 75.6628 12.5449 78.039 18.7892C78.9984 21.3049 79.2975 23.8771 79.1621 26.8046C79.6023 31.069 77.9994 35.0739 75.629 38.7629C71.571 45.0861 67.3493 51.3078 63.1897 57.569C61.2651 60.4627 59.2672 63.3056 57.4272 66.25C56.7217 67.3781 56.4057 67.13 55.8187 66.25C51.9526 60.4175 48.047 54.6076 44.1922 48.7751C41.7088 45.0184 39.0505 41.3689 36.8155 37.4486C32.2044 29.3598 33.0058 20.1993 38.52 12.7085L38.5256 12.6916ZM74.7542 53.8066C74.1954 53.8066 73.6367 53.8066 72.8973 53.8066C72.22 53.6769 70.9953 54.2522 70.5833 53.4738C70.1769 52.718 71.3226 52.0354 71.7234 51.2852C71.9886 50.7945 72.3329 50.3489 72.6715 49.9033C72.9707 49.5084 73.0102 48.7638 73.5859 48.7751C74.2406 48.7864 74.2914 49.5535 74.5284 50.0274C74.9235 50.8171 75.2339 51.6519 75.6346 52.4359C76.1595 53.4513 75.7588 53.8123 74.7485 53.8066H74.7542ZM49.0685 63.2604C48.9218 63.3789 48.6283 63.3676 48.4025 63.3451C46.3651 63.142 43.0464 60.2314 42.6965 58.2289C42.4425 56.7567 45.7217 57.5069 46.2296 58.2853C47.1383 59.6955 48.0526 61.1057 48.95 62.5271C49.0855 62.7415 49.3564 63.0179 49.0685 63.2548V63.2604ZM23.4901 52.1708C24.5004 47.506 25.4655 42.8298 26.4081 38.1537C26.5774 37.3132 26.995 36.9184 27.836 36.9466C27.9319 36.9466 28.0279 36.9579 28.1182 36.9466C31.1772 36.4107 38.6103 47.4157 38.5426 48.6849C38.4748 49.9484 38.4974 51.2175 38.5313 52.4811C38.5595 53.4456 38.1418 53.8348 37.188 53.8235C35.0772 53.7953 32.9663 53.8123 30.8555 53.8123C28.8406 53.8123 26.8201 53.7953 24.8052 53.8235C23.6199 53.8405 23.2249 53.3779 23.4845 52.1765L23.4901 52.1708ZM24.856 57.49C26.8257 57.4787 28.8011 57.49 30.7708 57.49C32.8365 57.49 34.9022 57.5013 36.9679 57.49C38.0459 57.4844 38.2942 57.8679 37.8032 58.8663C36.4712 61.5626 34.3604 63.1363 31.3578 63.4015C27.9601 63.7061 25.4486 62.2113 23.7554 59.3514C22.8693 57.8623 23.1346 57.5069 24.856 57.4956V57.49ZM5.13034 52.1652C7.39921 47.3762 9.71324 42.6098 11.999 37.8265C12.3038 37.1891 12.7779 36.9522 13.4608 36.9522C16.232 36.9635 19.0032 36.9579 21.7744 36.9522C22.5927 36.9522 22.9483 37.1327 22.7282 38.1198C21.9945 41.4591 21.3906 44.8266 20.6964 48.1716C20.4029 49.593 20.0022 50.9863 19.8216 52.4359C19.6974 53.4513 18.9524 53.8123 17.9986 53.8123C15.978 53.8123 13.9575 53.8123 11.937 53.8123C10.0124 53.8123 8.08213 53.8405 6.15754 53.8123C4.78606 53.7897 4.53209 53.4231 5.1247 52.1708L5.13034 52.1652ZM4.46436 59.594C4.11443 59.0525 3.62341 58.4151 3.95076 57.7833C4.24424 57.2249 4.97796 57.5013 5.51978 57.4956C7.39921 57.4674 9.2843 57.4844 11.1637 57.4844C13.2802 57.4844 15.3967 57.4618 17.5132 57.5013C18.7492 57.5238 18.9355 57.8792 18.3711 58.9622C17.0391 61.5062 15.0073 63.1138 12.1119 63.4015C8.80456 63.723 6.26478 62.3636 4.46436 59.5996V59.594ZM72.1354 101.008C72.1354 101.967 71.729 102.384 70.7808 102.35C70.0302 102.322 69.2739 102.35 68.5232 102.35H49.8192C49.8192 102.305 49.8305 102.26 49.8305 102.215V81.9086C49.8305 79.6467 47.9962 77.8078 45.7273 77.8078H34.7442C32.4809 77.8078 30.641 79.641 30.641 81.9086V102.238C30.641 102.277 30.6523 102.311 30.6523 102.35H27.819C22.034 102.35 16.2546 102.35 10.4695 102.35C8.70861 102.35 8.61267 102.26 8.61267 100.529C8.61267 89.862 8.61831 79.1954 8.59573 68.5288C8.59573 67.3669 8.78198 66.8987 10.1704 67.0171C14.2284 67.3612 17.6712 65.9341 20.2053 62.7133C20.9447 61.7769 21.1761 62.1379 21.7123 62.781C24.6754 66.3685 28.5245 67.6602 33.0228 66.769C35.6021 66.2556 37.8766 64.9921 39.5302 62.8599C40.1624 62.042 40.4671 62.1323 41.1275 62.9051C43.5544 65.7423 46.7376 67.0848 50.4513 67.0679C51.5801 67.0679 52.3307 67.4233 52.9008 68.3483C53.5385 69.3862 54.2158 70.4016 54.8818 71.4282C55.7792 72.7989 57.4442 72.8271 58.3528 71.462C59.4929 69.7416 60.6273 68.0155 61.711 66.2613C62.3149 65.2854 62.8736 65.0373 63.9911 65.6521C66.0794 66.8028 68.3539 67.412 70.7752 66.9777C71.808 66.7915 72.1354 67.192 72.1354 68.1622C72.1241 79.1108 72.1241 90.0594 72.1354 101.008ZM76.628 58.8663C74.9461 62.8769 69.5335 64.6932 65.8141 62.5159C64.9958 62.0364 64.7757 61.5344 65.3852 60.7221C65.9778 59.9381 66.5027 59.1089 67.0502 58.291C67.4565 57.6818 68.0491 57.4844 68.749 57.49C69.8778 57.4956 71.0009 57.49 72.1297 57.49V57.5013C73.3488 57.5013 74.5679 57.5013 75.7927 57.5013C76.7973 57.5013 77.0061 57.9807 76.6336 58.8663H76.628Z" fill="white"/>
<path d="M56.8459 38.4245C64.0081 38.165 69.6408 32.6484 69.6238 25.417C69.6125 18.039 63.9291 12.3475 56.5976 12.3757C49.1419 12.2629 43.5657 18.6708 43.5488 25.4509C43.5262 32.7556 50.045 38.6727 56.8459 38.4245ZM56.4678 15.9012C61.9481 15.9012 65.9835 19.923 66.1415 25.4001C66.1867 30.4147 61.8013 34.8483 56.7161 34.9216C51.6704 34.9949 47.0593 30.5557 47.1101 25.5975C47.1722 19.7594 51.614 15.9068 56.4621 15.9068L56.4678 15.9012Z" fill="white"/>
</g>
<defs>
<clipPath id="clip0_122_3">
<rect width="83" height="106" fill="white"/>
</clipPath>
</defs>
</svg>
