<svg width="90" height="78" viewBox="0 0 90 78" fill="none" xmlns="http://www.w3.org/2000/svg">
<g clip-path="url(#clip0_122_6)">
<path d="M71.9989 42.8848C71.7074 39.5742 71.7186 35.6894 71.1131 31.8553C69.6051 22.3178 65.4566 14.4525 56.7055 9.72884C44.4002 3.08527 27.638 7.42048 20.9723 21.7042C18.8701 26.2026 17.9731 30.9601 18.0011 35.909C18.0348 41.7081 18.5225 47.4846 18.9934 53.2498C19.4811 59.1671 21.9254 64.2005 26.7018 67.8995C29.8468 70.3317 33.4347 71.469 37.4038 71.2944C39.5453 71.1987 41.6868 71.0186 43.8283 70.9003C45.8521 70.7821 47.3882 71.987 47.6292 73.8618C47.8479 75.5396 46.6089 77.3131 44.7421 77.5158C39.4332 78.09 34.1074 78.5292 28.933 76.5812C21.5722 73.8055 16.5716 68.7046 13.9591 61.2615C13.6732 60.4508 13.3144 60.2031 12.4623 60.2031C6.03774 60.2031 1.22212 56.0368 0.218634 49.6184C-0.594247 44.4387 0.695151 40.0021 4.97259 36.7085C6.51987 35.5149 8.33063 34.8731 10.2423 34.5972C11.0103 34.4846 11.285 34.2594 11.3467 33.4317C12.0082 24.5755 14.7776 16.5751 20.9948 10.0385C25.9113 4.87566 31.8986 1.68899 38.9006 0.512294C48.0161 -1.0191 56.3747 0.866993 63.842 6.36201C70.1937 11.035 74.1292 17.4252 76.4053 24.9077C76.8145 26.2589 77.1845 27.6271 77.4368 29.0177C77.5713 29.7722 77.8965 29.9805 78.5972 30.0874C84.2257 30.9376 87.9594 34.0905 89.5347 39.5911C91.693 47.1299 86.1486 55.0233 78.3618 55.637C77.5938 55.699 76.8257 55.7609 76.0521 55.7834C74.1572 55.8453 72.7669 54.6123 72.6324 52.7037C72.4137 49.6128 72.2343 46.5218 71.9989 42.8791V42.8848Z" fill="white"/>
<path d="M45.527 48.4248C43.576 48.5599 41.8326 47.0172 41.7316 45.0636C41.6363 43.1831 43.2117 41.3871 45.0561 41.2857C46.9117 41.1788 48.6888 42.7721 48.8065 44.6469C48.9242 46.5724 47.4274 48.2953 45.527 48.4304V48.4248Z" fill="white"/>
<path d="M58.2864 47.6028C56.3859 47.7042 54.6873 46.1559 54.5864 44.236C54.4855 42.3555 56.0608 40.5595 57.9052 40.4525C59.7608 40.3399 61.5379 41.9333 61.6557 43.8081C61.779 45.7674 60.2373 47.5015 58.2808 47.6028H58.2864Z" fill="white"/>
<path d="M32.605 49.2356C30.6933 49.3426 28.9778 47.8281 28.8545 45.9195C28.7312 44.0052 30.2336 42.3162 32.1733 42.181C34.141 42.0403 35.8845 43.5829 35.9798 45.5366C36.0695 47.4227 34.511 49.1343 32.605 49.2356Z" fill="white"/>
</g>
<defs>
<clipPath id="clip0_122_6">
<rect width="90" height="78" fill="white"/>
</clipPath>
</defs>
</svg>
