<svg width="41" height="41" viewBox="0 0 41 41" fill="none" xmlns="http://www.w3.org/2000/svg">
<g clip-path="url(#clip0_122_48)">
<path d="M38.8074 30.1974C38.5471 29.3775 38.1122 28.8864 37.6451 28.8864H3.07679C2.57765 28.8864 2.11418 29.4534 1.86461 30.3744L0.192524 36.5106C-0.349389 38.5043 0.324437 41 1.4047 41H39.5953C40.7183 41 41.3886 38.3201 40.7576 36.3337L38.8074 30.1974Z" fill="#223FC7"/>
<path d="M10.0218 27.2756L31.2919 27.1491C33.4418 27.0589 35.0924 25.2097 34.9284 23.0679L33.5024 3.51058C33.3455 1.45913 31.5843 -0.0938971 29.5271 0.00361875L9.68314 2.08035C7.65453 2.17786 6.06088 3.84647 6.06088 5.87263V23.4797C6.06088 25.6395 7.86132 27.3622 10.0218 27.2756Z" fill="#223FC7"/>
</g>
<defs>
<clipPath id="clip0_122_48">
<rect width="41" height="41" fill="white"/>
</clipPath>
</defs>
</svg>
